<svg xmlns="http://www.w3.org/2000/svg" width="42" height="42" viewBox="0 0 42 42"><g fill="#FE6A69" fill-rule="evenodd"><path d="M31.5 36.25a6.508 6.508 0 0 1-6.5-6.5c0-3.584 2.916-6.5 6.5-6.5s6.5 2.916 6.5 6.5-2.916 6.5-6.5 6.5m0-14a7.499 7.499 0 0 0-7.5 7.5c0 4.143 3.357 7.5 7.5 7.5s7.5-3.357 7.5-7.5-3.357-7.5-7.5-7.5"/><path d="M30.795 33.18a3.492 3.492 0 0 1-2.771-3.02.499.499 0 1 0-.993.117 4.486 4.486 0 0 0 3.563 3.882.501.501 0 0 0 .201-.979M14.02 19.287a.504.504 0 0 1-.23-.63c1.363-3.663 5.686-7.93 9.43-8.158a.491.491 0 0 1 .508.368l1.487 5.21-5.99 5.99-5.206-2.78zm15.168-8.059a2.503 2.503 0 0 1-2.5-2.5c0-1.378 1.122-2.5 2.5-2.5 1.379 0 2.5 1.122 2.5 2.5 0 .435-.121.837-.316 1.194l-.991.99a2.47 2.47 0 0 1-1.194.316zM17 29.75c0 3.584-2.916 6.5-6.5 6.5a6.458 6.458 0 0 1-3.197-.847l1.494-1.493c.255.104.52.191.796.248a.5.5 0 0 0 .201-.978c-.072-.015-.136-.04-.207-.06l6.567-6.566c.535.945.846 2.034.846 3.196zm-13 0c0-3.584 2.915-6.5 6.5-6.5 2.057 0 3.89.964 5.082 2.46l-6.975 6.975a3.481 3.481 0 0 1-1.583-2.524.493.493 0 0 0-.556-.438.499.499 0 0 0-.436.554 4.471 4.471 0 0 0 1.856 3.127l-1.428 1.43A6.488 6.488 0 0 1 4 29.75zM41.852.146a.5.5 0 0 0-.706 0l-8.47 8.47a3.499 3.499 0 0 0-3.49-3.388c-1.93 0-3.5 1.571-3.5 3.5a3.5 3.5 0 0 0 3.389 3.49l-3.05 3.05-1.337-4.676a1.517 1.517 0 0 0-1.53-1.09c-4.116.25-8.836 4.855-10.307 8.806a1.514 1.514 0 0 0 .697 1.86l4.939 2.638-2.19 2.188A7.5 7.5 0 1 0 5.745 35.55L.147 41.146a.5.5 0 0 0 .708.707l5.721-5.72A7.443 7.443 0 0 0 10.5 37.25a7.5 7.5 0 0 0 7.5-7.5 7.446 7.446 0 0 0-1.117-3.925l2.526-2.526 1.822.972a.49.49 0 0 1 .247.552l-1.4 5.988a.499.499 0 1 0 .973.228l1.4-5.988a1.5 1.5 0 0 0-.748-1.662l-1.555-.83 5.538-5.537c.277.288.652.478 1.069.478h6.756a.5.5 0 0 0 0-1h-6.756c-.148 0-.267-.08-.36-.188l4.604-4.602a3.51 3.51 0 0 0 1.17-1.172L41.854.853a.5.5 0 0 0 0-.707z"/></g></svg>