<svg xmlns="http://www.w3.org/2000/svg" xmlns:xlink="http://www.w3.org/1999/xlink" width="48" height="48" viewBox="0 0 48 48">
    <defs>
        <path id="a" d="M0 0h48v48H0z"/>
    </defs>
    <g fill="none" fill-rule="evenodd">
        <path fill="none" d="M0 48h48V0H0z"/>
        <g>
            <mask id="b" fill="#fff">
                <use xlink:href="#a"/>
            </mask>
            <path fill="#FE6A69" d="M41.143 23.429h-8v-7.764l8-8V23.43zm0 17.865l-8-5.334V24.571h8v16.723zM16.057 35.37v-2.62l15.886-15.886v18.506H16.057zm-7.226 4.606l6.026-6.026v2.009l-6.026 4.017zM6.859 24.571h7.998v7.764l-8 8L6.86 24.57zM6.863 6.71l7.994 5.33v11.389H6.86l.004-16.72zm25.08 5.919v2.62L16.057 31.135V12.629h15.886zm7.225-4.605l-6.025 6.025V12.04l6.025-4.016zM47.833.167a.573.573 0 0 0-.809 0l-5.475 5.475c-.13-.049-.268-.08-.41-.08-.211 0-.43.06-.63.193L32 11.43H16L7.491 5.755a1.143 1.143 0 0 0-1.777.95v34.589c0 .055.024.1.031.153L.167 47.024a.573.573 0 0 0 .809.81l5.475-5.477c.13.05.268.08.41.08.211 0 .43-.06.63-.192L16 36.57h16l8.509 5.674a1.143 1.143 0 0 0 1.777-.95V6.705c0-.055-.024-.1-.031-.153L47.833.976a.573.573 0 0 0 0-.81z" mask="url(#b)"/>
        </g>
    </g>
</svg>
