<svg height="42" viewBox="0 0 42 42" width="42" xmlns="http://www.w3.org/2000/svg"><g fill="none" fill-rule="evenodd"><path d="M0 42h42V0H0z"/><g fill="#a8e05f"><path d="M31.5 22.25a7.499 7.499 0 0 0-7.5 7.5c0 4.143 3.357 7.5 7.5 7.5s7.5-3.357 7.5-7.5-3.357-7.5-7.5-7.5m0 1c3.584 0 6.5 2.916 6.5 6.5s-2.916 6.5-6.5 6.5a6.508 6.508 0 0 1-6.5-6.5c0-3.584 2.916-6.5 6.5-6.5"/><path d="M30.694 34.169a.44.44 0 0 1-.1-.011 4.483 4.483 0 0 1-3.563-3.881.499.499 0 0 1 .437-.554.495.495 0 0 1 .555.438 3.493 3.493 0 0 0 2.772 3.019.499.499 0 0 1-.1.989m-1.507-27.94a2.503 2.503 0 0 0-2.5 2.5c0 1.379 1.122 2.5 2.5 2.5 1.379 0 2.5-1.121 2.5-2.5 0-1.378-1.121-2.5-2.5-2.5m0 6c-1.93 0-3.5-1.57-3.5-3.5s1.57-3.5 3.5-3.5 3.5 1.57 3.5 3.5-1.57 3.5-3.5 3.5"/><path d="M20.564 31.426a.498.498 0 0 1-.487-.614l1.4-5.99a.489.489 0 0 0-.247-.55l-7.681-4.104a1.513 1.513 0 0 1-.697-1.86c1.47-3.95 6.192-8.557 10.308-8.807a1.517 1.517 0 0 1 1.53 1.09l1.583 5.547a.501.501 0 0 0 .48.362h6.757a.5.5 0 0 1 0 1h-6.756a1.505 1.505 0 0 1-1.442-1.088l-1.585-5.545a.492.492 0 0 0-.506-.368c-3.745.228-8.069 4.495-9.431 8.158a.504.504 0 0 0 .23.63l7.681 4.102a1.5 1.5 0 0 1 .75 1.662l-1.4 5.988a.5.5 0 0 1-.486.387M10.5 22.25a7.499 7.499 0 0 0-7.5 7.5c0 4.143 3.357 7.5 7.5 7.5s7.5-3.357 7.5-7.5-3.357-7.5-7.5-7.5m0 1c3.584 0 6.5 2.916 6.5 6.5s-2.916 6.5-6.5 6.5a6.508 6.508 0 0 1-6.5-6.5c0-3.584 2.916-6.5 6.5-6.5"/><path d="M9.694 34.169a.44.44 0 0 1-.1-.011 4.483 4.483 0 0 1-3.563-3.881.499.499 0 0 1 .437-.554.493.493 0 0 1 .555.438 3.493 3.493 0 0 0 2.772 3.019.499.499 0 0 1-.1.989"/></g></g></svg>